G04 #@! TF.FileFunction,Legend,Bot*
%FSLAX46Y46*%
G04 Gerber Fmt 4.6, Leading zero omitted, Abs format (unit mm)*
G04 Created by KiCad (PCBNEW 4.0.1-stable) date 2018/08/01 23:42:05*
%MOMM*%
G01*
G04 APERTURE LIST*
%ADD10C,0.100000*%
%ADD11R,2.000000X2.000000*%
%ADD12C,2.000000*%
%ADD13C,2.800000*%
%ADD14C,2.400000*%
%ADD15C,3.600000*%
%ADD16C,1.924000*%
%ADD17C,1.600000*%
%ADD18O,1.400000X2.200000*%
G04 APERTURE END LIST*
D10*
%LPC*%
D11*
X23000000Y-28500000D03*
D12*
X23000000Y-31040000D03*
X23000000Y-33580000D03*
X23000000Y-36120000D03*
X30620000Y-36120000D03*
X30620000Y-33580000D03*
X30620000Y-31040000D03*
X30620000Y-28500000D03*
D13*
X3500000Y-11100000D03*
X3500000Y-16900000D03*
D14*
X7000000Y-11500000D03*
X7000000Y-16500000D03*
D13*
X11000000Y-11750000D03*
X11000000Y-16250000D03*
X3500000Y-33100000D03*
X3500000Y-38900000D03*
D14*
X7000000Y-33500000D03*
X7000000Y-38500000D03*
D13*
X11000000Y-33750000D03*
X11000000Y-38250000D03*
D11*
X28500000Y-3000000D03*
D12*
X28500000Y-5540000D03*
X28500000Y-8080000D03*
D11*
X23000000Y-14500000D03*
D12*
X23000000Y-17040000D03*
X23000000Y-19580000D03*
X23000000Y-22120000D03*
X30620000Y-22120000D03*
X30620000Y-19580000D03*
X30620000Y-17040000D03*
X30620000Y-14500000D03*
X13500000Y-7250000D03*
X13500000Y-3750000D03*
X22000000Y-3750000D03*
X22000000Y-7250000D03*
D13*
X3500000Y-22100000D03*
X3500000Y-27900000D03*
D14*
X7000000Y-22500000D03*
X7000000Y-27500000D03*
D13*
X11000000Y-22750000D03*
X11000000Y-27250000D03*
D15*
X45000000Y-5000000D03*
X5000000Y-5000000D03*
X5000000Y-45000000D03*
X45000000Y-45000000D03*
D12*
X45650000Y-15550000D03*
X45650000Y-13050000D03*
D16*
X44300000Y-20900000D03*
X41800000Y-23400000D03*
X46800000Y-23400000D03*
X44300000Y-30400000D03*
X41800000Y-32900000D03*
X46800000Y-32900000D03*
D17*
X38500000Y-2500000D03*
X34500000Y-2500000D03*
D18*
X32200000Y-2500000D03*
X40900000Y-2500000D03*
D17*
X36500000Y-2500000D03*
M02*
