M48
;DRILL file {KiCad 4.0.1-stable} date 2018/08/01 23:42:12
;FORMAT={3:3/ absolute / metric / suppress trailing zeros}
FMAT,2
METRIC,LZ
T1C0.400
T2C0.600
T3C0.700
T4C0.762
T5C0.800
T6C1.000
T7C1.200
%
G90
G05
M71
T1
X0105Y-044
X0105Y-047
X0145Y-044
X0145Y-047
X0163Y-0236
X0185Y-0385
X0185Y-044
X0185Y-047
X0225Y-044
X0225Y-047
X023Y-0385
X0265Y-044
X0265Y-047
X0268Y-0286
X028Y-0385
X0285Y-0145
X0305Y-043
X0305Y-047
X0321Y-0135
X0322Y-0275
X034Y-043
X034Y-047
X035Y-0395
X038Y-025
X038Y-0285
X038Y-0315
X0385Y-043
X0385Y-047
X039Y-0395
X03925Y-0195
X042Y-026
X042Y-029
X0435Y-0395
X0475Y-0395
T3
X0345Y-0025
X0365Y-0025
X0385Y-0025
T4
X0418Y-0234
X0418Y-0329
X0443Y-0209
X0443Y-0304
X0468Y-0234
X0468Y-0329
T5
X0135Y-00375
X0135Y-00725
X022Y-00375
X022Y-00725
X023Y-0145
X023Y-01704
X023Y-01958
X023Y-02212
X023Y-0285
X023Y-03104
X023Y-03358
X023Y-03612
X0285Y-003
X0285Y-00554
X0285Y-00808
X03062Y-0145
X03062Y-01704
X03062Y-01958
X03062Y-02212
X03062Y-0285
X03062Y-03104
X03062Y-03358
X03062Y-03612
X04565Y-01305
X04565Y-01555
T6
X007Y-0115
X007Y-0165
X007Y-0225
X007Y-0275
X007Y-0335
X007Y-0385
T7
X0035Y-0111
X0035Y-0169
X0035Y-0221
X0035Y-0279
X0035Y-0331
X0035Y-0389
X011Y-01175
X011Y-01625
X011Y-02275
X011Y-02725
X011Y-03375
X011Y-03825
T2
X0322Y-0029G85X0322Y-0021
G05
X0409Y-0029G85X0409Y-0021
G05
T0
M30
