G04 #@! TF.FileFunction,Legend,Top*
%FSLAX46Y46*%
G04 Gerber Fmt 4.6, Leading zero omitted, Abs format (unit mm)*
G04 Created by KiCad (PCBNEW 4.0.1-stable) date 2018/08/01 23:42:05*
%MOMM*%
G01*
G04 APERTURE LIST*
%ADD10C,0.100000*%
%ADD11C,0.300000*%
%ADD12C,0.150000*%
%ADD13R,2.000000X2.000000*%
%ADD14C,2.000000*%
%ADD15R,1.400000X1.300000*%
%ADD16R,1.300000X1.400000*%
%ADD17C,2.800000*%
%ADD18C,2.400000*%
%ADD19C,3.600000*%
%ADD20C,1.924000*%
%ADD21C,1.600000*%
%ADD22O,1.400000X2.200000*%
G04 APERTURE END LIST*
D10*
D11*
X27678572Y-45178571D02*
X28178572Y-46678571D01*
X28678572Y-45178571D01*
X29750000Y-46607143D02*
X29607143Y-46678571D01*
X29321429Y-46678571D01*
X29178572Y-46607143D01*
X29107143Y-46464286D01*
X29107143Y-45892857D01*
X29178572Y-45750000D01*
X29321429Y-45678571D01*
X29607143Y-45678571D01*
X29750000Y-45750000D01*
X29821429Y-45892857D01*
X29821429Y-46035714D01*
X29107143Y-46178571D01*
X30464286Y-46678571D02*
X30464286Y-45678571D01*
X30464286Y-45964286D02*
X30535714Y-45821429D01*
X30607143Y-45750000D01*
X30750000Y-45678571D01*
X30892857Y-45678571D01*
X31392857Y-46535714D02*
X31464285Y-46607143D01*
X31392857Y-46678571D01*
X31321428Y-46607143D01*
X31392857Y-46535714D01*
X31392857Y-46678571D01*
X34035714Y-46678571D02*
X33178571Y-46678571D01*
X33607143Y-46678571D02*
X33607143Y-45178571D01*
X33464286Y-45392857D01*
X33321428Y-45535714D01*
X33178571Y-45607143D01*
X34678571Y-46535714D02*
X34749999Y-46607143D01*
X34678571Y-46678571D01*
X34607142Y-46607143D01*
X34678571Y-46535714D01*
X34678571Y-46678571D01*
X35678571Y-45178571D02*
X35821428Y-45178571D01*
X35964285Y-45250000D01*
X36035714Y-45321429D01*
X36107143Y-45464286D01*
X36178571Y-45750000D01*
X36178571Y-46107143D01*
X36107143Y-46392857D01*
X36035714Y-46535714D01*
X35964285Y-46607143D01*
X35821428Y-46678571D01*
X35678571Y-46678571D01*
X35535714Y-46607143D01*
X35464285Y-46535714D01*
X35392857Y-46392857D01*
X35321428Y-46107143D01*
X35321428Y-45750000D01*
X35392857Y-45464286D01*
X35464285Y-45321429D01*
X35535714Y-45250000D01*
X35678571Y-45178571D01*
X12630953Y-46130952D02*
X12630953Y-43630952D01*
X13464286Y-45416667D01*
X14297620Y-43630952D01*
X14297620Y-46130952D01*
X15488096Y-46130952D02*
X15488096Y-44464286D01*
X15488096Y-43630952D02*
X15369048Y-43750000D01*
X15488096Y-43869048D01*
X15607144Y-43750000D01*
X15488096Y-43630952D01*
X15488096Y-43869048D01*
X17750001Y-46011905D02*
X17511905Y-46130952D01*
X17035715Y-46130952D01*
X16797620Y-46011905D01*
X16678572Y-45892857D01*
X16559524Y-45654762D01*
X16559524Y-44940476D01*
X16678572Y-44702381D01*
X16797620Y-44583333D01*
X17035715Y-44464286D01*
X17511905Y-44464286D01*
X17750001Y-44583333D01*
X18702381Y-45416667D02*
X19892858Y-45416667D01*
X18464286Y-46130952D02*
X19297620Y-43630952D01*
X20130953Y-46130952D01*
X20964286Y-46130952D02*
X20964286Y-44464286D01*
X20964286Y-44702381D02*
X21083334Y-44583333D01*
X21321429Y-44464286D01*
X21678572Y-44464286D01*
X21916667Y-44583333D01*
X22035715Y-44821429D01*
X22035715Y-46130952D01*
X22035715Y-44821429D02*
X22154762Y-44583333D01*
X22392858Y-44464286D01*
X22750000Y-44464286D01*
X22988096Y-44583333D01*
X23107143Y-44821429D01*
X23107143Y-46130952D01*
X24297619Y-44464286D02*
X24297619Y-46964286D01*
X24297619Y-44583333D02*
X24535714Y-44464286D01*
X25011905Y-44464286D01*
X25250000Y-44583333D01*
X25369048Y-44702381D01*
X25488095Y-44940476D01*
X25488095Y-45654762D01*
X25369048Y-45892857D01*
X25250000Y-46011905D01*
X25011905Y-46130952D01*
X24535714Y-46130952D01*
X24297619Y-46011905D01*
D12*
X26048000Y-27738000D02*
G75*
G03X26810000Y-28500000I762000J0D01*
G01*
X26810000Y-28500000D02*
G75*
G03X27572000Y-27738000I0J762000D01*
G01*
X29350000Y-27738000D02*
X29350000Y-36882000D01*
X24270000Y-36882000D02*
X24270000Y-27738000D01*
X29350000Y-27738000D02*
X24270000Y-27738000D01*
X24270000Y-36882000D02*
X29350000Y-36882000D01*
X17900000Y-19500000D02*
X17900000Y-20200000D01*
X17900000Y-20200000D02*
X21100000Y-20200000D01*
X21100000Y-20200000D02*
X21100000Y-18800000D01*
X21100000Y-18800000D02*
X17900000Y-18800000D01*
X17900000Y-18800000D02*
X17900000Y-19500000D01*
X19200000Y-12700000D02*
X19200000Y-15300000D01*
X17800000Y-12700000D02*
X17800000Y-15300000D01*
X35700000Y-15200000D02*
X35700000Y-17800000D01*
X34300000Y-15200000D02*
X34300000Y-17800000D01*
X16800000Y-15700000D02*
X14200000Y-15700000D01*
X16800000Y-14300000D02*
X14200000Y-14300000D01*
X19200000Y-26700000D02*
X19200000Y-29300000D01*
X17800000Y-26700000D02*
X17800000Y-29300000D01*
X35700000Y-28700000D02*
X35700000Y-31300000D01*
X34300000Y-28700000D02*
X34300000Y-31300000D01*
X16800000Y-29200000D02*
X14200000Y-29200000D01*
X16800000Y-27800000D02*
X14200000Y-27800000D01*
X0Y-11500000D02*
X-2500000Y-11500000D01*
X-2500000Y-11500000D02*
X-2500000Y-16500000D01*
X-2500000Y-16500000D02*
X0Y-16500000D01*
X0Y-14000000D02*
X0Y-17000000D01*
X0Y-17000000D02*
X1500000Y-17000000D01*
X0Y-14000000D02*
X0Y-11000000D01*
X0Y-11000000D02*
X1500000Y-11000000D01*
X0Y-33500000D02*
X-2500000Y-33500000D01*
X-2500000Y-33500000D02*
X-2500000Y-38500000D01*
X-2500000Y-38500000D02*
X0Y-38500000D01*
X0Y-36000000D02*
X0Y-39000000D01*
X0Y-39000000D02*
X1500000Y-39000000D01*
X0Y-36000000D02*
X0Y-33000000D01*
X0Y-33000000D02*
X1500000Y-33000000D01*
X13900000Y-13000000D02*
X13900000Y-13700000D01*
X13900000Y-13700000D02*
X17100000Y-13700000D01*
X17100000Y-13700000D02*
X17100000Y-12300000D01*
X17100000Y-12300000D02*
X13900000Y-12300000D01*
X13900000Y-12300000D02*
X13900000Y-13000000D01*
X20500000Y-15600000D02*
X21200000Y-15600000D01*
X21200000Y-15600000D02*
X21200000Y-12400000D01*
X21200000Y-12400000D02*
X19800000Y-12400000D01*
X19800000Y-12400000D02*
X19800000Y-15600000D01*
X19800000Y-15600000D02*
X20500000Y-15600000D01*
X33000000Y-18100000D02*
X33700000Y-18100000D01*
X33700000Y-18100000D02*
X33700000Y-14900000D01*
X33700000Y-14900000D02*
X32300000Y-14900000D01*
X32300000Y-14900000D02*
X32300000Y-18100000D01*
X32300000Y-18100000D02*
X33000000Y-18100000D01*
X17900000Y-17000000D02*
X17900000Y-17700000D01*
X17900000Y-17700000D02*
X21100000Y-17700000D01*
X21100000Y-17700000D02*
X21100000Y-16300000D01*
X21100000Y-16300000D02*
X17900000Y-16300000D01*
X17900000Y-16300000D02*
X17900000Y-17000000D01*
X35600000Y-19500000D02*
X35600000Y-18800000D01*
X35600000Y-18800000D02*
X32400000Y-18800000D01*
X32400000Y-18800000D02*
X32400000Y-20200000D01*
X32400000Y-20200000D02*
X35600000Y-20200000D01*
X35600000Y-20200000D02*
X35600000Y-19500000D01*
X36100000Y-13500000D02*
X36100000Y-12800000D01*
X36100000Y-12800000D02*
X32900000Y-12800000D01*
X32900000Y-12800000D02*
X32900000Y-14200000D01*
X32900000Y-14200000D02*
X36100000Y-14200000D01*
X36100000Y-14200000D02*
X36100000Y-13500000D01*
X35600000Y-22000000D02*
X35600000Y-21300000D01*
X35600000Y-21300000D02*
X32400000Y-21300000D01*
X32400000Y-21300000D02*
X32400000Y-22700000D01*
X32400000Y-22700000D02*
X35600000Y-22700000D01*
X35600000Y-22700000D02*
X35600000Y-22000000D01*
X13900000Y-26500000D02*
X13900000Y-27200000D01*
X13900000Y-27200000D02*
X17100000Y-27200000D01*
X17100000Y-27200000D02*
X17100000Y-25800000D01*
X17100000Y-25800000D02*
X13900000Y-25800000D01*
X13900000Y-25800000D02*
X13900000Y-26500000D01*
X20500000Y-29600000D02*
X21200000Y-29600000D01*
X21200000Y-29600000D02*
X21200000Y-26400000D01*
X21200000Y-26400000D02*
X19800000Y-26400000D01*
X19800000Y-26400000D02*
X19800000Y-29600000D01*
X19800000Y-29600000D02*
X20500000Y-29600000D01*
X33000000Y-31600000D02*
X33700000Y-31600000D01*
X33700000Y-31600000D02*
X33700000Y-28400000D01*
X33700000Y-28400000D02*
X32300000Y-28400000D01*
X32300000Y-28400000D02*
X32300000Y-31600000D01*
X32300000Y-31600000D02*
X33000000Y-31600000D01*
X17900000Y-31000000D02*
X17900000Y-31700000D01*
X17900000Y-31700000D02*
X21100000Y-31700000D01*
X21100000Y-31700000D02*
X21100000Y-30300000D01*
X21100000Y-30300000D02*
X17900000Y-30300000D01*
X17900000Y-30300000D02*
X17900000Y-31000000D01*
X35600000Y-33500000D02*
X35600000Y-32800000D01*
X35600000Y-32800000D02*
X32400000Y-32800000D01*
X32400000Y-32800000D02*
X32400000Y-34200000D01*
X32400000Y-34200000D02*
X35600000Y-34200000D01*
X35600000Y-34200000D02*
X35600000Y-33500000D01*
X36100000Y-27000000D02*
X36100000Y-26300000D01*
X36100000Y-26300000D02*
X32900000Y-26300000D01*
X32900000Y-26300000D02*
X32900000Y-27700000D01*
X32900000Y-27700000D02*
X36100000Y-27700000D01*
X36100000Y-27700000D02*
X36100000Y-27000000D01*
X17900000Y-33500000D02*
X17900000Y-34200000D01*
X17900000Y-34200000D02*
X21100000Y-34200000D01*
X21100000Y-34200000D02*
X21100000Y-32800000D01*
X21100000Y-32800000D02*
X17900000Y-32800000D01*
X17900000Y-32800000D02*
X17900000Y-33500000D01*
X35600000Y-36000000D02*
X35600000Y-35300000D01*
X35600000Y-35300000D02*
X32400000Y-35300000D01*
X32400000Y-35300000D02*
X32400000Y-36700000D01*
X32400000Y-36700000D02*
X35600000Y-36700000D01*
X35600000Y-36700000D02*
X35600000Y-36000000D01*
X27230000Y-3000000D02*
X27230000Y-8080000D01*
X29770000Y-8080000D02*
G75*
G03X31040000Y-4270000I-1270000J2540000D01*
G01*
X31040000Y-6810000D02*
G75*
G03X29770000Y-3000000I-2540000J1270000D01*
G01*
X26048000Y-13738000D02*
G75*
G03X26810000Y-14500000I762000J0D01*
G01*
X26810000Y-14500000D02*
G75*
G03X27572000Y-13738000I0J762000D01*
G01*
X29350000Y-13738000D02*
X29350000Y-22882000D01*
X24270000Y-22882000D02*
X24270000Y-13738000D01*
X29350000Y-13738000D02*
X24270000Y-13738000D01*
X24270000Y-22882000D02*
X29350000Y-22882000D01*
X11250000Y-7250000D02*
X12250000Y-7250000D01*
X11750000Y-7250000D02*
X11750000Y-7750000D01*
X11750000Y-7250000D02*
X11750000Y-6750000D01*
X10700000Y-2600000D02*
X16100000Y-2600000D01*
X16100000Y-2600000D02*
X16200000Y-2600000D01*
X17450312Y-5500000D02*
G75*
G03X17450312Y-5500000I-4000312J0D01*
G01*
X24250000Y-3750000D02*
X23250000Y-3750000D01*
X23750000Y-3750000D02*
X23750000Y-3250000D01*
X23750000Y-3750000D02*
X23750000Y-4250000D01*
X24800000Y-8400000D02*
X19400000Y-8400000D01*
X19400000Y-8400000D02*
X19300000Y-8400000D01*
X26050312Y-5500000D02*
G75*
G03X26050312Y-5500000I-4000312J0D01*
G01*
X0Y-22500000D02*
X-2500000Y-22500000D01*
X-2500000Y-22500000D02*
X-2500000Y-27500000D01*
X-2500000Y-27500000D02*
X0Y-27500000D01*
X0Y-25000000D02*
X0Y-28000000D01*
X0Y-28000000D02*
X1500000Y-28000000D01*
X0Y-25000000D02*
X0Y-22000000D01*
X0Y-22000000D02*
X1500000Y-22000000D01*
X47000000Y-18000000D02*
X47000000Y-10600000D01*
X48000000Y-18000000D02*
X42250000Y-18000000D01*
X42250000Y-18000000D02*
X42250000Y-10600000D01*
X42250000Y-10600000D02*
X48000000Y-10600000D01*
X48000000Y-10600000D02*
X48000000Y-18000000D01*
X47600000Y-20000000D02*
X47600000Y-27000000D01*
X47600000Y-27000000D02*
X41000000Y-27000000D01*
X41000000Y-27000000D02*
X41000000Y-20000000D01*
X41000000Y-20000000D02*
X47600000Y-20000000D01*
X47600000Y-29500000D02*
X47600000Y-36500000D01*
X47600000Y-36500000D02*
X41000000Y-36500000D01*
X41000000Y-36500000D02*
X41000000Y-29500000D01*
X41000000Y-29500000D02*
X47600000Y-29500000D01*
X29700000Y-11300000D02*
X32300000Y-11300000D01*
X29700000Y-12700000D02*
X32300000Y-12700000D01*
X29700000Y-25300000D02*
X32300000Y-25300000D01*
X29700000Y-26700000D02*
X32300000Y-26700000D01*
X18200000Y-21300000D02*
X20800000Y-21300000D01*
X18200000Y-22700000D02*
X20800000Y-22700000D01*
X18200000Y-35300000D02*
X20800000Y-35300000D01*
X18200000Y-36700000D02*
X20800000Y-36700000D01*
X32200000Y-4700000D02*
X32200000Y-300000D01*
X32200000Y-300000D02*
X40900000Y-300000D01*
X40900000Y-300000D02*
X40900000Y-4700000D01*
X40900000Y-4700000D02*
X32200000Y-4700000D01*
X26238095Y-26452381D02*
X26238095Y-27261905D01*
X26285714Y-27357143D01*
X26333333Y-27404762D01*
X26428571Y-27452381D01*
X26619048Y-27452381D01*
X26714286Y-27404762D01*
X26761905Y-27357143D01*
X26809524Y-27261905D01*
X26809524Y-26452381D01*
X27190476Y-26452381D02*
X27809524Y-26452381D01*
X27476190Y-26833333D01*
X27619048Y-26833333D01*
X27714286Y-26880952D01*
X27761905Y-26928571D01*
X27809524Y-27023810D01*
X27809524Y-27261905D01*
X27761905Y-27357143D01*
X27714286Y-27404762D01*
X27619048Y-27452381D01*
X27333333Y-27452381D01*
X27238095Y-27404762D01*
X27190476Y-27357143D01*
X16333334Y-19952381D02*
X16000000Y-19476190D01*
X15761905Y-19952381D02*
X15761905Y-18952381D01*
X16142858Y-18952381D01*
X16238096Y-19000000D01*
X16285715Y-19047619D01*
X16333334Y-19142857D01*
X16333334Y-19285714D01*
X16285715Y-19380952D01*
X16238096Y-19428571D01*
X16142858Y-19476190D01*
X15761905Y-19476190D01*
X16666667Y-18952381D02*
X17333334Y-18952381D01*
X16904762Y-19952381D01*
X18857143Y-11466666D02*
X18904762Y-11514285D01*
X18952381Y-11657142D01*
X18952381Y-11752380D01*
X18904762Y-11895238D01*
X18809524Y-11990476D01*
X18714286Y-12038095D01*
X18523810Y-12085714D01*
X18380952Y-12085714D01*
X18190476Y-12038095D01*
X18095238Y-11990476D01*
X18000000Y-11895238D01*
X17952381Y-11752380D01*
X17952381Y-11657142D01*
X18000000Y-11514285D01*
X18047619Y-11466666D01*
X17952381Y-11133333D02*
X17952381Y-10466666D01*
X18952381Y-10895238D01*
X38357143Y-16666666D02*
X38404762Y-16714285D01*
X38452381Y-16857142D01*
X38452381Y-16952380D01*
X38404762Y-17095238D01*
X38309524Y-17190476D01*
X38214286Y-17238095D01*
X38023810Y-17285714D01*
X37880952Y-17285714D01*
X37690476Y-17238095D01*
X37595238Y-17190476D01*
X37500000Y-17095238D01*
X37452381Y-16952380D01*
X37452381Y-16857142D01*
X37500000Y-16714285D01*
X37547619Y-16666666D01*
X37880952Y-16095238D02*
X37833333Y-16190476D01*
X37785714Y-16238095D01*
X37690476Y-16285714D01*
X37642857Y-16285714D01*
X37547619Y-16238095D01*
X37500000Y-16190476D01*
X37452381Y-16095238D01*
X37452381Y-15904761D01*
X37500000Y-15809523D01*
X37547619Y-15761904D01*
X37642857Y-15714285D01*
X37690476Y-15714285D01*
X37785714Y-15761904D01*
X37833333Y-15809523D01*
X37880952Y-15904761D01*
X37880952Y-16095238D01*
X37928571Y-16190476D01*
X37976190Y-16238095D01*
X38071429Y-16285714D01*
X38261905Y-16285714D01*
X38357143Y-16238095D01*
X38404762Y-16190476D01*
X38452381Y-16095238D01*
X38452381Y-15904761D01*
X38404762Y-15809523D01*
X38357143Y-15761904D01*
X38261905Y-15714285D01*
X38071429Y-15714285D01*
X37976190Y-15761904D01*
X37928571Y-15809523D01*
X37880952Y-15904761D01*
X15333334Y-16857143D02*
X15285715Y-16904762D01*
X15142858Y-16952381D01*
X15047620Y-16952381D01*
X14904762Y-16904762D01*
X14809524Y-16809524D01*
X14761905Y-16714286D01*
X14714286Y-16523810D01*
X14714286Y-16380952D01*
X14761905Y-16190476D01*
X14809524Y-16095238D01*
X14904762Y-16000000D01*
X15047620Y-15952381D01*
X15142858Y-15952381D01*
X15285715Y-16000000D01*
X15333334Y-16047619D01*
X15809524Y-16952381D02*
X16000000Y-16952381D01*
X16095239Y-16904762D01*
X16142858Y-16857143D01*
X16238096Y-16714286D01*
X16285715Y-16523810D01*
X16285715Y-16142857D01*
X16238096Y-16047619D01*
X16190477Y-16000000D01*
X16095239Y-15952381D01*
X15904762Y-15952381D01*
X15809524Y-16000000D01*
X15761905Y-16047619D01*
X15714286Y-16142857D01*
X15714286Y-16380952D01*
X15761905Y-16476190D01*
X15809524Y-16523810D01*
X15904762Y-16571429D01*
X16095239Y-16571429D01*
X16190477Y-16523810D01*
X16238096Y-16476190D01*
X16285715Y-16380952D01*
X18857143Y-25442857D02*
X18904762Y-25490476D01*
X18952381Y-25633333D01*
X18952381Y-25728571D01*
X18904762Y-25871429D01*
X18809524Y-25966667D01*
X18714286Y-26014286D01*
X18523810Y-26061905D01*
X18380952Y-26061905D01*
X18190476Y-26014286D01*
X18095238Y-25966667D01*
X18000000Y-25871429D01*
X17952381Y-25728571D01*
X17952381Y-25633333D01*
X18000000Y-25490476D01*
X18047619Y-25442857D01*
X18952381Y-24490476D02*
X18952381Y-25061905D01*
X18952381Y-24776191D02*
X17952381Y-24776191D01*
X18095238Y-24871429D01*
X18190476Y-24966667D01*
X18238095Y-25061905D01*
X17952381Y-23871429D02*
X17952381Y-23776190D01*
X18000000Y-23680952D01*
X18047619Y-23633333D01*
X18142857Y-23585714D01*
X18333333Y-23538095D01*
X18571429Y-23538095D01*
X18761905Y-23585714D01*
X18857143Y-23633333D01*
X18904762Y-23680952D01*
X18952381Y-23776190D01*
X18952381Y-23871429D01*
X18904762Y-23966667D01*
X18857143Y-24014286D01*
X18761905Y-24061905D01*
X18571429Y-24109524D01*
X18333333Y-24109524D01*
X18142857Y-24061905D01*
X18047619Y-24014286D01*
X18000000Y-23966667D01*
X17952381Y-23871429D01*
X38457143Y-30642857D02*
X38504762Y-30690476D01*
X38552381Y-30833333D01*
X38552381Y-30928571D01*
X38504762Y-31071429D01*
X38409524Y-31166667D01*
X38314286Y-31214286D01*
X38123810Y-31261905D01*
X37980952Y-31261905D01*
X37790476Y-31214286D01*
X37695238Y-31166667D01*
X37600000Y-31071429D01*
X37552381Y-30928571D01*
X37552381Y-30833333D01*
X37600000Y-30690476D01*
X37647619Y-30642857D01*
X38552381Y-29690476D02*
X38552381Y-30261905D01*
X38552381Y-29976191D02*
X37552381Y-29976191D01*
X37695238Y-30071429D01*
X37790476Y-30166667D01*
X37838095Y-30261905D01*
X38552381Y-28738095D02*
X38552381Y-29309524D01*
X38552381Y-29023810D02*
X37552381Y-29023810D01*
X37695238Y-29119048D01*
X37790476Y-29214286D01*
X37838095Y-29309524D01*
X14857143Y-30357143D02*
X14809524Y-30404762D01*
X14666667Y-30452381D01*
X14571429Y-30452381D01*
X14428571Y-30404762D01*
X14333333Y-30309524D01*
X14285714Y-30214286D01*
X14238095Y-30023810D01*
X14238095Y-29880952D01*
X14285714Y-29690476D01*
X14333333Y-29595238D01*
X14428571Y-29500000D01*
X14571429Y-29452381D01*
X14666667Y-29452381D01*
X14809524Y-29500000D01*
X14857143Y-29547619D01*
X15809524Y-30452381D02*
X15238095Y-30452381D01*
X15523809Y-30452381D02*
X15523809Y-29452381D01*
X15428571Y-29595238D01*
X15333333Y-29690476D01*
X15238095Y-29738095D01*
X16190476Y-29547619D02*
X16238095Y-29500000D01*
X16333333Y-29452381D01*
X16571429Y-29452381D01*
X16666667Y-29500000D01*
X16714286Y-29547619D01*
X16761905Y-29642857D01*
X16761905Y-29738095D01*
X16714286Y-29880952D01*
X16142857Y-30452381D01*
X16761905Y-30452381D01*
X8166667Y-7952381D02*
X8166667Y-8666667D01*
X8119047Y-8809524D01*
X8023809Y-8904762D01*
X7880952Y-8952381D01*
X7785714Y-8952381D01*
X9166667Y-8952381D02*
X8595238Y-8952381D01*
X8880952Y-8952381D02*
X8880952Y-7952381D01*
X8785714Y-8095238D01*
X8690476Y-8190476D01*
X8595238Y-8238095D01*
X8166667Y-29952381D02*
X8166667Y-30666667D01*
X8119047Y-30809524D01*
X8023809Y-30904762D01*
X7880952Y-30952381D01*
X7785714Y-30952381D01*
X8547619Y-29952381D02*
X9166667Y-29952381D01*
X8833333Y-30333333D01*
X8976191Y-30333333D01*
X9071429Y-30380952D01*
X9119048Y-30428571D01*
X9166667Y-30523810D01*
X9166667Y-30761905D01*
X9119048Y-30857143D01*
X9071429Y-30904762D01*
X8976191Y-30952381D01*
X8690476Y-30952381D01*
X8595238Y-30904762D01*
X8547619Y-30857143D01*
X15333334Y-11952381D02*
X15000000Y-11476190D01*
X14761905Y-11952381D02*
X14761905Y-10952381D01*
X15142858Y-10952381D01*
X15238096Y-11000000D01*
X15285715Y-11047619D01*
X15333334Y-11142857D01*
X15333334Y-11285714D01*
X15285715Y-11380952D01*
X15238096Y-11428571D01*
X15142858Y-11476190D01*
X14761905Y-11476190D01*
X16285715Y-11952381D02*
X15714286Y-11952381D01*
X16000000Y-11952381D02*
X16000000Y-10952381D01*
X15904762Y-11095238D01*
X15809524Y-11190476D01*
X15714286Y-11238095D01*
X20952381Y-11466666D02*
X20476190Y-11800000D01*
X20952381Y-12038095D02*
X19952381Y-12038095D01*
X19952381Y-11657142D01*
X20000000Y-11561904D01*
X20047619Y-11514285D01*
X20142857Y-11466666D01*
X20285714Y-11466666D01*
X20380952Y-11514285D01*
X20428571Y-11561904D01*
X20476190Y-11657142D01*
X20476190Y-12038095D01*
X20047619Y-11085714D02*
X20000000Y-11038095D01*
X19952381Y-10942857D01*
X19952381Y-10704761D01*
X20000000Y-10609523D01*
X20047619Y-10561904D01*
X20142857Y-10514285D01*
X20238095Y-10514285D01*
X20380952Y-10561904D01*
X20952381Y-11133333D01*
X20952381Y-10514285D01*
X37052381Y-16666666D02*
X36576190Y-17000000D01*
X37052381Y-17238095D02*
X36052381Y-17238095D01*
X36052381Y-16857142D01*
X36100000Y-16761904D01*
X36147619Y-16714285D01*
X36242857Y-16666666D01*
X36385714Y-16666666D01*
X36480952Y-16714285D01*
X36528571Y-16761904D01*
X36576190Y-16857142D01*
X36576190Y-17238095D01*
X36052381Y-16333333D02*
X36052381Y-15714285D01*
X36433333Y-16047619D01*
X36433333Y-15904761D01*
X36480952Y-15809523D01*
X36528571Y-15761904D01*
X36623810Y-15714285D01*
X36861905Y-15714285D01*
X36957143Y-15761904D01*
X37004762Y-15809523D01*
X37052381Y-15904761D01*
X37052381Y-16190476D01*
X37004762Y-16285714D01*
X36957143Y-16333333D01*
X16333334Y-18452381D02*
X16000000Y-17976190D01*
X15761905Y-18452381D02*
X15761905Y-17452381D01*
X16142858Y-17452381D01*
X16238096Y-17500000D01*
X16285715Y-17547619D01*
X16333334Y-17642857D01*
X16333334Y-17785714D01*
X16285715Y-17880952D01*
X16238096Y-17928571D01*
X16142858Y-17976190D01*
X15761905Y-17976190D01*
X17190477Y-17785714D02*
X17190477Y-18452381D01*
X16952381Y-17404762D02*
X16714286Y-18119048D01*
X17333334Y-18119048D01*
X36833334Y-19952381D02*
X36500000Y-19476190D01*
X36261905Y-19952381D02*
X36261905Y-18952381D01*
X36642858Y-18952381D01*
X36738096Y-19000000D01*
X36785715Y-19047619D01*
X36833334Y-19142857D01*
X36833334Y-19285714D01*
X36785715Y-19380952D01*
X36738096Y-19428571D01*
X36642858Y-19476190D01*
X36261905Y-19476190D01*
X37738096Y-18952381D02*
X37261905Y-18952381D01*
X37214286Y-19428571D01*
X37261905Y-19380952D01*
X37357143Y-19333333D01*
X37595239Y-19333333D01*
X37690477Y-19380952D01*
X37738096Y-19428571D01*
X37785715Y-19523810D01*
X37785715Y-19761905D01*
X37738096Y-19857143D01*
X37690477Y-19904762D01*
X37595239Y-19952381D01*
X37357143Y-19952381D01*
X37261905Y-19904762D01*
X37214286Y-19857143D01*
X37333334Y-13952381D02*
X37000000Y-13476190D01*
X36761905Y-13952381D02*
X36761905Y-12952381D01*
X37142858Y-12952381D01*
X37238096Y-13000000D01*
X37285715Y-13047619D01*
X37333334Y-13142857D01*
X37333334Y-13285714D01*
X37285715Y-13380952D01*
X37238096Y-13428571D01*
X37142858Y-13476190D01*
X36761905Y-13476190D01*
X38190477Y-12952381D02*
X38000000Y-12952381D01*
X37904762Y-13000000D01*
X37857143Y-13047619D01*
X37761905Y-13190476D01*
X37714286Y-13380952D01*
X37714286Y-13761905D01*
X37761905Y-13857143D01*
X37809524Y-13904762D01*
X37904762Y-13952381D01*
X38095239Y-13952381D01*
X38190477Y-13904762D01*
X38238096Y-13857143D01*
X38285715Y-13761905D01*
X38285715Y-13523810D01*
X38238096Y-13428571D01*
X38190477Y-13380952D01*
X38095239Y-13333333D01*
X37904762Y-13333333D01*
X37809524Y-13380952D01*
X37761905Y-13428571D01*
X37714286Y-13523810D01*
X36833334Y-22452381D02*
X36500000Y-21976190D01*
X36261905Y-22452381D02*
X36261905Y-21452381D01*
X36642858Y-21452381D01*
X36738096Y-21500000D01*
X36785715Y-21547619D01*
X36833334Y-21642857D01*
X36833334Y-21785714D01*
X36785715Y-21880952D01*
X36738096Y-21928571D01*
X36642858Y-21976190D01*
X36261905Y-21976190D01*
X37404762Y-21880952D02*
X37309524Y-21833333D01*
X37261905Y-21785714D01*
X37214286Y-21690476D01*
X37214286Y-21642857D01*
X37261905Y-21547619D01*
X37309524Y-21500000D01*
X37404762Y-21452381D01*
X37595239Y-21452381D01*
X37690477Y-21500000D01*
X37738096Y-21547619D01*
X37785715Y-21642857D01*
X37785715Y-21690476D01*
X37738096Y-21785714D01*
X37690477Y-21833333D01*
X37595239Y-21880952D01*
X37404762Y-21880952D01*
X37309524Y-21928571D01*
X37261905Y-21976190D01*
X37214286Y-22071429D01*
X37214286Y-22261905D01*
X37261905Y-22357143D01*
X37309524Y-22404762D01*
X37404762Y-22452381D01*
X37595239Y-22452381D01*
X37690477Y-22404762D01*
X37738096Y-22357143D01*
X37785715Y-22261905D01*
X37785715Y-22071429D01*
X37738096Y-21976190D01*
X37690477Y-21928571D01*
X37595239Y-21880952D01*
X15133334Y-25452381D02*
X14800000Y-24976190D01*
X14561905Y-25452381D02*
X14561905Y-24452381D01*
X14942858Y-24452381D01*
X15038096Y-24500000D01*
X15085715Y-24547619D01*
X15133334Y-24642857D01*
X15133334Y-24785714D01*
X15085715Y-24880952D01*
X15038096Y-24928571D01*
X14942858Y-24976190D01*
X14561905Y-24976190D01*
X15609524Y-25452381D02*
X15800000Y-25452381D01*
X15895239Y-25404762D01*
X15942858Y-25357143D01*
X16038096Y-25214286D01*
X16085715Y-25023810D01*
X16085715Y-24642857D01*
X16038096Y-24547619D01*
X15990477Y-24500000D01*
X15895239Y-24452381D01*
X15704762Y-24452381D01*
X15609524Y-24500000D01*
X15561905Y-24547619D01*
X15514286Y-24642857D01*
X15514286Y-24880952D01*
X15561905Y-24976190D01*
X15609524Y-25023810D01*
X15704762Y-25071429D01*
X15895239Y-25071429D01*
X15990477Y-25023810D01*
X16038096Y-24976190D01*
X16085715Y-24880952D01*
X20952381Y-25442857D02*
X20476190Y-25776191D01*
X20952381Y-26014286D02*
X19952381Y-26014286D01*
X19952381Y-25633333D01*
X20000000Y-25538095D01*
X20047619Y-25490476D01*
X20142857Y-25442857D01*
X20285714Y-25442857D01*
X20380952Y-25490476D01*
X20428571Y-25538095D01*
X20476190Y-25633333D01*
X20476190Y-26014286D01*
X20952381Y-24490476D02*
X20952381Y-25061905D01*
X20952381Y-24776191D02*
X19952381Y-24776191D01*
X20095238Y-24871429D01*
X20190476Y-24966667D01*
X20238095Y-25061905D01*
X19952381Y-23871429D02*
X19952381Y-23776190D01*
X20000000Y-23680952D01*
X20047619Y-23633333D01*
X20142857Y-23585714D01*
X20333333Y-23538095D01*
X20571429Y-23538095D01*
X20761905Y-23585714D01*
X20857143Y-23633333D01*
X20904762Y-23680952D01*
X20952381Y-23776190D01*
X20952381Y-23871429D01*
X20904762Y-23966667D01*
X20857143Y-24014286D01*
X20761905Y-24061905D01*
X20571429Y-24109524D01*
X20333333Y-24109524D01*
X20142857Y-24061905D01*
X20047619Y-24014286D01*
X20000000Y-23966667D01*
X19952381Y-23871429D01*
X37052381Y-30642857D02*
X36576190Y-30976191D01*
X37052381Y-31214286D02*
X36052381Y-31214286D01*
X36052381Y-30833333D01*
X36100000Y-30738095D01*
X36147619Y-30690476D01*
X36242857Y-30642857D01*
X36385714Y-30642857D01*
X36480952Y-30690476D01*
X36528571Y-30738095D01*
X36576190Y-30833333D01*
X36576190Y-31214286D01*
X37052381Y-29690476D02*
X37052381Y-30261905D01*
X37052381Y-29976191D02*
X36052381Y-29976191D01*
X36195238Y-30071429D01*
X36290476Y-30166667D01*
X36338095Y-30261905D01*
X37052381Y-28738095D02*
X37052381Y-29309524D01*
X37052381Y-29023810D02*
X36052381Y-29023810D01*
X36195238Y-29119048D01*
X36290476Y-29214286D01*
X36338095Y-29309524D01*
X15357143Y-31952381D02*
X15023809Y-31476190D01*
X14785714Y-31952381D02*
X14785714Y-30952381D01*
X15166667Y-30952381D01*
X15261905Y-31000000D01*
X15309524Y-31047619D01*
X15357143Y-31142857D01*
X15357143Y-31285714D01*
X15309524Y-31380952D01*
X15261905Y-31428571D01*
X15166667Y-31476190D01*
X14785714Y-31476190D01*
X16309524Y-31952381D02*
X15738095Y-31952381D01*
X16023809Y-31952381D02*
X16023809Y-30952381D01*
X15928571Y-31095238D01*
X15833333Y-31190476D01*
X15738095Y-31238095D01*
X16690476Y-31047619D02*
X16738095Y-31000000D01*
X16833333Y-30952381D01*
X17071429Y-30952381D01*
X17166667Y-31000000D01*
X17214286Y-31047619D01*
X17261905Y-31142857D01*
X17261905Y-31238095D01*
X17214286Y-31380952D01*
X16642857Y-31952381D01*
X17261905Y-31952381D01*
X36857143Y-33952381D02*
X36523809Y-33476190D01*
X36285714Y-33952381D02*
X36285714Y-32952381D01*
X36666667Y-32952381D01*
X36761905Y-33000000D01*
X36809524Y-33047619D01*
X36857143Y-33142857D01*
X36857143Y-33285714D01*
X36809524Y-33380952D01*
X36761905Y-33428571D01*
X36666667Y-33476190D01*
X36285714Y-33476190D01*
X37809524Y-33952381D02*
X37238095Y-33952381D01*
X37523809Y-33952381D02*
X37523809Y-32952381D01*
X37428571Y-33095238D01*
X37333333Y-33190476D01*
X37238095Y-33238095D01*
X38142857Y-32952381D02*
X38761905Y-32952381D01*
X38428571Y-33333333D01*
X38571429Y-33333333D01*
X38666667Y-33380952D01*
X38714286Y-33428571D01*
X38761905Y-33523810D01*
X38761905Y-33761905D01*
X38714286Y-33857143D01*
X38666667Y-33904762D01*
X38571429Y-33952381D01*
X38285714Y-33952381D01*
X38190476Y-33904762D01*
X38142857Y-33857143D01*
X33857143Y-25952381D02*
X33523809Y-25476190D01*
X33285714Y-25952381D02*
X33285714Y-24952381D01*
X33666667Y-24952381D01*
X33761905Y-25000000D01*
X33809524Y-25047619D01*
X33857143Y-25142857D01*
X33857143Y-25285714D01*
X33809524Y-25380952D01*
X33761905Y-25428571D01*
X33666667Y-25476190D01*
X33285714Y-25476190D01*
X34809524Y-25952381D02*
X34238095Y-25952381D01*
X34523809Y-25952381D02*
X34523809Y-24952381D01*
X34428571Y-25095238D01*
X34333333Y-25190476D01*
X34238095Y-25238095D01*
X35666667Y-25285714D02*
X35666667Y-25952381D01*
X35428571Y-24904762D02*
X35190476Y-25619048D01*
X35809524Y-25619048D01*
X15357143Y-33952381D02*
X15023809Y-33476190D01*
X14785714Y-33952381D02*
X14785714Y-32952381D01*
X15166667Y-32952381D01*
X15261905Y-33000000D01*
X15309524Y-33047619D01*
X15357143Y-33142857D01*
X15357143Y-33285714D01*
X15309524Y-33380952D01*
X15261905Y-33428571D01*
X15166667Y-33476190D01*
X14785714Y-33476190D01*
X16309524Y-33952381D02*
X15738095Y-33952381D01*
X16023809Y-33952381D02*
X16023809Y-32952381D01*
X15928571Y-33095238D01*
X15833333Y-33190476D01*
X15738095Y-33238095D01*
X17214286Y-32952381D02*
X16738095Y-32952381D01*
X16690476Y-33428571D01*
X16738095Y-33380952D01*
X16833333Y-33333333D01*
X17071429Y-33333333D01*
X17166667Y-33380952D01*
X17214286Y-33428571D01*
X17261905Y-33523810D01*
X17261905Y-33761905D01*
X17214286Y-33857143D01*
X17166667Y-33904762D01*
X17071429Y-33952381D01*
X16833333Y-33952381D01*
X16738095Y-33904762D01*
X16690476Y-33857143D01*
X36857143Y-36452381D02*
X36523809Y-35976190D01*
X36285714Y-36452381D02*
X36285714Y-35452381D01*
X36666667Y-35452381D01*
X36761905Y-35500000D01*
X36809524Y-35547619D01*
X36857143Y-35642857D01*
X36857143Y-35785714D01*
X36809524Y-35880952D01*
X36761905Y-35928571D01*
X36666667Y-35976190D01*
X36285714Y-35976190D01*
X37809524Y-36452381D02*
X37238095Y-36452381D01*
X37523809Y-36452381D02*
X37523809Y-35452381D01*
X37428571Y-35595238D01*
X37333333Y-35690476D01*
X37238095Y-35738095D01*
X38666667Y-35452381D02*
X38476190Y-35452381D01*
X38380952Y-35500000D01*
X38333333Y-35547619D01*
X38238095Y-35690476D01*
X38190476Y-35880952D01*
X38190476Y-36261905D01*
X38238095Y-36357143D01*
X38285714Y-36404762D01*
X38380952Y-36452381D01*
X38571429Y-36452381D01*
X38666667Y-36404762D01*
X38714286Y-36357143D01*
X38761905Y-36261905D01*
X38761905Y-36023810D01*
X38714286Y-35928571D01*
X38666667Y-35880952D01*
X38571429Y-35833333D01*
X38380952Y-35833333D01*
X38285714Y-35880952D01*
X38238095Y-35928571D01*
X38190476Y-36023810D01*
X31238095Y-7552381D02*
X31238095Y-8361905D01*
X31285714Y-8457143D01*
X31333333Y-8504762D01*
X31428571Y-8552381D01*
X31619048Y-8552381D01*
X31714286Y-8504762D01*
X31761905Y-8457143D01*
X31809524Y-8361905D01*
X31809524Y-7552381D01*
X32809524Y-8552381D02*
X32238095Y-8552381D01*
X32523809Y-8552381D02*
X32523809Y-7552381D01*
X32428571Y-7695238D01*
X32333333Y-7790476D01*
X32238095Y-7838095D01*
X26238095Y-12452381D02*
X26238095Y-13261905D01*
X26285714Y-13357143D01*
X26333333Y-13404762D01*
X26428571Y-13452381D01*
X26619048Y-13452381D01*
X26714286Y-13404762D01*
X26761905Y-13357143D01*
X26809524Y-13261905D01*
X26809524Y-12452381D01*
X27238095Y-12547619D02*
X27285714Y-12500000D01*
X27380952Y-12452381D01*
X27619048Y-12452381D01*
X27714286Y-12500000D01*
X27761905Y-12547619D01*
X27809524Y-12642857D01*
X27809524Y-12738095D01*
X27761905Y-12880952D01*
X27190476Y-13452381D01*
X27809524Y-13452381D01*
X17083334Y-9857143D02*
X17035715Y-9904762D01*
X16892858Y-9952381D01*
X16797620Y-9952381D01*
X16654762Y-9904762D01*
X16559524Y-9809524D01*
X16511905Y-9714286D01*
X16464286Y-9523810D01*
X16464286Y-9380952D01*
X16511905Y-9190476D01*
X16559524Y-9095238D01*
X16654762Y-9000000D01*
X16797620Y-8952381D01*
X16892858Y-8952381D01*
X17035715Y-9000000D01*
X17083334Y-9047619D01*
X18035715Y-9952381D02*
X17464286Y-9952381D01*
X17750000Y-9952381D02*
X17750000Y-8952381D01*
X17654762Y-9095238D01*
X17559524Y-9190476D01*
X17464286Y-9238095D01*
X25583334Y-9857143D02*
X25535715Y-9904762D01*
X25392858Y-9952381D01*
X25297620Y-9952381D01*
X25154762Y-9904762D01*
X25059524Y-9809524D01*
X25011905Y-9714286D01*
X24964286Y-9523810D01*
X24964286Y-9380952D01*
X25011905Y-9190476D01*
X25059524Y-9095238D01*
X25154762Y-9000000D01*
X25297620Y-8952381D01*
X25392858Y-8952381D01*
X25535715Y-9000000D01*
X25583334Y-9047619D01*
X26440477Y-9285714D02*
X26440477Y-9952381D01*
X26202381Y-8904762D02*
X25964286Y-9619048D01*
X26583334Y-9619048D01*
X8166667Y-18952381D02*
X8166667Y-19666667D01*
X8119047Y-19809524D01*
X8023809Y-19904762D01*
X7880952Y-19952381D01*
X7785714Y-19952381D01*
X8595238Y-19047619D02*
X8642857Y-19000000D01*
X8738095Y-18952381D01*
X8976191Y-18952381D01*
X9071429Y-19000000D01*
X9119048Y-19047619D01*
X9166667Y-19142857D01*
X9166667Y-19238095D01*
X9119048Y-19380952D01*
X8547619Y-19952381D01*
X9166667Y-19952381D01*
X44259524Y-10007143D02*
X44211905Y-10054762D01*
X44069048Y-10102381D01*
X43973810Y-10102381D01*
X43830952Y-10054762D01*
X43735714Y-9959524D01*
X43688095Y-9864286D01*
X43640476Y-9673810D01*
X43640476Y-9530952D01*
X43688095Y-9340476D01*
X43735714Y-9245238D01*
X43830952Y-9150000D01*
X43973810Y-9102381D01*
X44069048Y-9102381D01*
X44211905Y-9150000D01*
X44259524Y-9197619D01*
X44688095Y-10102381D02*
X44688095Y-9102381D01*
X45259524Y-10102381D01*
X45259524Y-9102381D01*
X46259524Y-10102381D02*
X45688095Y-10102381D01*
X45973809Y-10102381D02*
X45973809Y-9102381D01*
X45878571Y-9245238D01*
X45783333Y-9340476D01*
X45688095Y-9388095D01*
X43290476Y-27352381D02*
X43623809Y-28352381D01*
X43957143Y-27352381D01*
X44861905Y-28352381D02*
X44528571Y-27876190D01*
X44290476Y-28352381D02*
X44290476Y-27352381D01*
X44671429Y-27352381D01*
X44766667Y-27400000D01*
X44814286Y-27447619D01*
X44861905Y-27542857D01*
X44861905Y-27685714D01*
X44814286Y-27780952D01*
X44766667Y-27828571D01*
X44671429Y-27876190D01*
X44290476Y-27876190D01*
X45814286Y-28352381D02*
X45242857Y-28352381D01*
X45528571Y-28352381D02*
X45528571Y-27352381D01*
X45433333Y-27495238D01*
X45338095Y-27590476D01*
X45242857Y-27638095D01*
X43290476Y-36852381D02*
X43623809Y-37852381D01*
X43957143Y-36852381D01*
X44861905Y-37852381D02*
X44528571Y-37376190D01*
X44290476Y-37852381D02*
X44290476Y-36852381D01*
X44671429Y-36852381D01*
X44766667Y-36900000D01*
X44814286Y-36947619D01*
X44861905Y-37042857D01*
X44861905Y-37185714D01*
X44814286Y-37280952D01*
X44766667Y-37328571D01*
X44671429Y-37376190D01*
X44290476Y-37376190D01*
X45242857Y-36947619D02*
X45290476Y-36900000D01*
X45385714Y-36852381D01*
X45623810Y-36852381D01*
X45719048Y-36900000D01*
X45766667Y-36947619D01*
X45814286Y-37042857D01*
X45814286Y-37138095D01*
X45766667Y-37280952D01*
X45195238Y-37852381D01*
X45814286Y-37852381D01*
X30833334Y-10857143D02*
X30785715Y-10904762D01*
X30642858Y-10952381D01*
X30547620Y-10952381D01*
X30404762Y-10904762D01*
X30309524Y-10809524D01*
X30261905Y-10714286D01*
X30214286Y-10523810D01*
X30214286Y-10380952D01*
X30261905Y-10190476D01*
X30309524Y-10095238D01*
X30404762Y-10000000D01*
X30547620Y-9952381D01*
X30642858Y-9952381D01*
X30785715Y-10000000D01*
X30833334Y-10047619D01*
X31214286Y-10047619D02*
X31261905Y-10000000D01*
X31357143Y-9952381D01*
X31595239Y-9952381D01*
X31690477Y-10000000D01*
X31738096Y-10047619D01*
X31785715Y-10142857D01*
X31785715Y-10238095D01*
X31738096Y-10380952D01*
X31166667Y-10952381D01*
X31785715Y-10952381D01*
X30833334Y-24857143D02*
X30785715Y-24904762D01*
X30642858Y-24952381D01*
X30547620Y-24952381D01*
X30404762Y-24904762D01*
X30309524Y-24809524D01*
X30261905Y-24714286D01*
X30214286Y-24523810D01*
X30214286Y-24380952D01*
X30261905Y-24190476D01*
X30309524Y-24095238D01*
X30404762Y-24000000D01*
X30547620Y-23952381D01*
X30642858Y-23952381D01*
X30785715Y-24000000D01*
X30833334Y-24047619D01*
X31166667Y-23952381D02*
X31785715Y-23952381D01*
X31452381Y-24333333D01*
X31595239Y-24333333D01*
X31690477Y-24380952D01*
X31738096Y-24428571D01*
X31785715Y-24523810D01*
X31785715Y-24761905D01*
X31738096Y-24857143D01*
X31690477Y-24904762D01*
X31595239Y-24952381D01*
X31309524Y-24952381D01*
X31214286Y-24904762D01*
X31166667Y-24857143D01*
X16333334Y-22357143D02*
X16285715Y-22404762D01*
X16142858Y-22452381D01*
X16047620Y-22452381D01*
X15904762Y-22404762D01*
X15809524Y-22309524D01*
X15761905Y-22214286D01*
X15714286Y-22023810D01*
X15714286Y-21880952D01*
X15761905Y-21690476D01*
X15809524Y-21595238D01*
X15904762Y-21500000D01*
X16047620Y-21452381D01*
X16142858Y-21452381D01*
X16285715Y-21500000D01*
X16333334Y-21547619D01*
X17238096Y-21452381D02*
X16761905Y-21452381D01*
X16714286Y-21928571D01*
X16761905Y-21880952D01*
X16857143Y-21833333D01*
X17095239Y-21833333D01*
X17190477Y-21880952D01*
X17238096Y-21928571D01*
X17285715Y-22023810D01*
X17285715Y-22261905D01*
X17238096Y-22357143D01*
X17190477Y-22404762D01*
X17095239Y-22452381D01*
X16857143Y-22452381D01*
X16761905Y-22404762D01*
X16714286Y-22357143D01*
X16333334Y-36357143D02*
X16285715Y-36404762D01*
X16142858Y-36452381D01*
X16047620Y-36452381D01*
X15904762Y-36404762D01*
X15809524Y-36309524D01*
X15761905Y-36214286D01*
X15714286Y-36023810D01*
X15714286Y-35880952D01*
X15761905Y-35690476D01*
X15809524Y-35595238D01*
X15904762Y-35500000D01*
X16047620Y-35452381D01*
X16142858Y-35452381D01*
X16285715Y-35500000D01*
X16333334Y-35547619D01*
X17190477Y-35452381D02*
X17000000Y-35452381D01*
X16904762Y-35500000D01*
X16857143Y-35547619D01*
X16761905Y-35690476D01*
X16714286Y-35880952D01*
X16714286Y-36261905D01*
X16761905Y-36357143D01*
X16809524Y-36404762D01*
X16904762Y-36452381D01*
X17095239Y-36452381D01*
X17190477Y-36404762D01*
X17238096Y-36357143D01*
X17285715Y-36261905D01*
X17285715Y-36023810D01*
X17238096Y-35928571D01*
X17190477Y-35880952D01*
X17095239Y-35833333D01*
X16904762Y-35833333D01*
X16809524Y-35880952D01*
X16761905Y-35928571D01*
X16714286Y-36023810D01*
X35166667Y-6154762D02*
X35309524Y-6202381D01*
X35547620Y-6202381D01*
X35642858Y-6154762D01*
X35690477Y-6107143D01*
X35738096Y-6011905D01*
X35738096Y-5916667D01*
X35690477Y-5821429D01*
X35642858Y-5773810D01*
X35547620Y-5726190D01*
X35357143Y-5678571D01*
X35261905Y-5630952D01*
X35214286Y-5583333D01*
X35166667Y-5488095D01*
X35166667Y-5392857D01*
X35214286Y-5297619D01*
X35261905Y-5250000D01*
X35357143Y-5202381D01*
X35595239Y-5202381D01*
X35738096Y-5250000D01*
X36071429Y-5202381D02*
X36309524Y-6202381D01*
X36500001Y-5488095D01*
X36690477Y-6202381D01*
X36928572Y-5202381D01*
X37833334Y-6202381D02*
X37261905Y-6202381D01*
X37547619Y-6202381D02*
X37547619Y-5202381D01*
X37452381Y-5345238D01*
X37357143Y-5440476D01*
X37261905Y-5488095D01*
%LPC*%
D13*
X23000000Y-28500000D03*
D14*
X23000000Y-31040000D03*
X23000000Y-33580000D03*
X23000000Y-36120000D03*
X30620000Y-36120000D03*
X30620000Y-33580000D03*
X30620000Y-31040000D03*
X30620000Y-28500000D03*
D15*
X20300000Y-19500000D03*
X18700000Y-19500000D03*
D16*
X18500000Y-13200000D03*
X18500000Y-14800000D03*
X35000000Y-15700000D03*
X35000000Y-17300000D03*
D15*
X16300000Y-15000000D03*
X14700000Y-15000000D03*
D16*
X18500000Y-27200000D03*
X18500000Y-28800000D03*
X35000000Y-29200000D03*
X35000000Y-30800000D03*
D15*
X16300000Y-28500000D03*
X14700000Y-28500000D03*
D17*
X3500000Y-11100000D03*
X3500000Y-16900000D03*
D18*
X7000000Y-11500000D03*
X7000000Y-16500000D03*
D17*
X11000000Y-11750000D03*
X11000000Y-16250000D03*
X3500000Y-33100000D03*
X3500000Y-38900000D03*
D18*
X7000000Y-33500000D03*
X7000000Y-38500000D03*
D17*
X11000000Y-33750000D03*
X11000000Y-38250000D03*
D15*
X16300000Y-13000000D03*
X14700000Y-13000000D03*
D16*
X20500000Y-13200000D03*
X20500000Y-14800000D03*
X33000000Y-15700000D03*
X33000000Y-17300000D03*
D15*
X20300000Y-17000000D03*
X18700000Y-17000000D03*
X33200000Y-19500000D03*
X34800000Y-19500000D03*
X33700000Y-13500000D03*
X35300000Y-13500000D03*
X33200000Y-22000000D03*
X34800000Y-22000000D03*
X16300000Y-26500000D03*
X14700000Y-26500000D03*
D16*
X20500000Y-27200000D03*
X20500000Y-28800000D03*
X33000000Y-29200000D03*
X33000000Y-30800000D03*
D15*
X20300000Y-31000000D03*
X18700000Y-31000000D03*
X33200000Y-33500000D03*
X34800000Y-33500000D03*
X33700000Y-27000000D03*
X35300000Y-27000000D03*
X20300000Y-33500000D03*
X18700000Y-33500000D03*
X33200000Y-36000000D03*
X34800000Y-36000000D03*
D13*
X28500000Y-3000000D03*
D14*
X28500000Y-5540000D03*
X28500000Y-8080000D03*
D13*
X23000000Y-14500000D03*
D14*
X23000000Y-17040000D03*
X23000000Y-19580000D03*
X23000000Y-22120000D03*
X30620000Y-22120000D03*
X30620000Y-19580000D03*
X30620000Y-17040000D03*
X30620000Y-14500000D03*
X13500000Y-7250000D03*
X13500000Y-3750000D03*
X22000000Y-3750000D03*
X22000000Y-7250000D03*
D17*
X3500000Y-22100000D03*
X3500000Y-27900000D03*
D18*
X7000000Y-22500000D03*
X7000000Y-27500000D03*
D17*
X11000000Y-22750000D03*
X11000000Y-27250000D03*
D19*
X45000000Y-5000000D03*
X5000000Y-5000000D03*
X5000000Y-45000000D03*
X45000000Y-45000000D03*
D14*
X45650000Y-15550000D03*
X45650000Y-13050000D03*
D20*
X44300000Y-20900000D03*
X41800000Y-23400000D03*
X46800000Y-23400000D03*
X44300000Y-30400000D03*
X41800000Y-32900000D03*
X46800000Y-32900000D03*
D15*
X30200000Y-12000000D03*
X31800000Y-12000000D03*
X30200000Y-26000000D03*
X31800000Y-26000000D03*
X18700000Y-22000000D03*
X20300000Y-22000000D03*
X18700000Y-36000000D03*
X20300000Y-36000000D03*
D21*
X38500000Y-2500000D03*
X34500000Y-2500000D03*
D22*
X32200000Y-2500000D03*
X40900000Y-2500000D03*
D21*
X36500000Y-2500000D03*
M02*
